<?xml version="1.0" encoding="UTF-8"?>
<svg id="Layer_2" data-name="Layer 2" xmlns="http://www.w3.org/2000/svg" viewBox="0 0 1920 1080">
  <defs>
    <style>
      .cls-1 {
        fill: #fff;
        stroke-width: 0px;
      }
    </style>
  </defs>
  <g id="Layer_1-2" data-name="Layer 1">
    <path class="cls-1" d="M827.96,474.08c-4.26-4.25-10.64-5.32-29.24-5.32h-130.25c-18.08,0-24.99,1.07-29.24,5.32-4.25,3.72-5.85,8.5-5.85,24.45v82.94c0,15.95,1.6,20.73,5.85,24.45,4.25,4.25,10.63,5.32,29.24,5.32h130.25c18.07,0,24.98-1.07,29.24-5.32,4.25-3.72,5.84-8.5,5.84-24.45v-82.94c0-15.95-1.59-20.73-5.84-24.45ZM827.96,474.08c-4.26-4.25-10.64-5.32-29.24-5.32h-130.25c-18.08,0-24.99,1.07-29.24,5.32-4.25,3.72-5.85,8.5-5.85,24.45v82.94c0,15.95,1.6,20.73,5.85,24.45,4.25,4.25,10.63,5.32,29.24,5.32h130.25c18.07,0,24.98-1.07,29.24-5.32,4.25-3.72,5.84-8.5,5.84-24.45v-82.94c0-15.95-1.59-20.73-5.84-24.45ZM827.96,474.08c-4.26-4.25-10.64-5.32-29.24-5.32h-130.25c-18.08,0-24.99,1.07-29.24,5.32-4.25,3.72-5.85,8.5-5.85,24.45v82.94c0,15.95,1.6,20.73,5.85,24.45,4.25,4.25,10.63,5.32,29.24,5.32h130.25c18.07,0,24.98-1.07,29.24-5.32,4.25-3.72,5.84-8.5,5.84-24.45v-82.94c0-15.95-1.59-20.73-5.84-24.45ZM827.96,474.08c-4.26-4.25-10.64-5.32-29.24-5.32h-130.25c-18.08,0-24.99,1.07-29.24,5.32-4.25,3.72-5.85,8.5-5.85,24.45v82.94c0,15.95,1.6,20.73,5.85,24.45,4.25,4.25,10.63,5.32,29.24,5.32h130.25c18.07,0,24.98-1.07,29.24-5.32,4.25-3.72,5.84-8.5,5.84-24.45v-82.94c0-15.95-1.59-20.73-5.84-24.45ZM0,0v1080h1920V0H0ZM525.46,677.16h-135.56l-161.61-207.33v206.8h-80.28v-272.19h138.75l158.96,203.08v-203.08h79.74v272.72ZM908.76,592.63c0,37.75-6.91,51.04-17.54,63.26-17.01,18.61-41.47,24.46-89.31,24.46h-136.63c-47.85,0-72.3-5.85-89.31-24.46-11.17-12.76-17.55-25.51-17.55-63.26v-105.26c0-37.75,6.91-51.04,17.55-63.26,16.48-18.61,41.46-24.46,89.31-24.46h136.63c47.84,0,72.3,5.85,89.31,24.46,11.16,12.76,17.54,25.51,17.54,63.26v105.26ZM1178.3,676.63l-153.11-141.95v142.48h-83.47v-272.72h83.47v130.24l141.94-130.24h110.58l-149.39,127.59,168,144.6h-118.02ZM1395.73,677.16h-84v-272.72h84v272.72ZM1714.7,676.63l-24.98-47.32h-162.15l-24.45,47.32h-92.51l148.33-272.19h104.2l148.85,272.19h-97.29ZM1557.34,570.3h104.2l-52.1-98.88-52.1,98.88ZM827.96,474.08c-4.26-4.25-10.64-5.32-29.24-5.32h-130.25c-18.08,0-24.99,1.07-29.24,5.32-4.25,3.72-5.85,8.5-5.85,24.45v82.94c0,15.95,1.6,20.73,5.85,24.45,4.25,4.25,10.63,5.32,29.24,5.32h130.25c18.07,0,24.98-1.07,29.24-5.32,4.25-3.72,5.84-8.5,5.84-24.45v-82.94c0-15.95-1.59-20.73-5.84-24.45ZM827.96,474.08c-4.26-4.25-10.64-5.32-29.24-5.32h-130.25c-18.08,0-24.99,1.07-29.24,5.32-4.25,3.72-5.85,8.5-5.85,24.45v82.94c0,15.95,1.6,20.73,5.85,24.45,4.25,4.25,10.63,5.32,29.24,5.32h130.25c18.07,0,24.98-1.07,29.24-5.32,4.25-3.72,5.84-8.5,5.84-24.45v-82.94c0-15.95-1.59-20.73-5.84-24.45ZM827.96,474.08c-4.26-4.25-10.64-5.32-29.24-5.32h-130.25c-18.08,0-24.99,1.07-29.24,5.32-4.25,3.72-5.85,8.5-5.85,24.45v82.94c0,15.95,1.6,20.73,5.85,24.45,4.25,4.25,10.63,5.32,29.24,5.32h130.25c18.07,0,24.98-1.07,29.24-5.32,4.25-3.72,5.84-8.5,5.84-24.45v-82.94c0-15.95-1.59-20.73-5.84-24.45ZM827.96,474.08c-4.26-4.25-10.64-5.32-29.24-5.32h-130.25c-18.08,0-24.99,1.07-29.24,5.32-4.25,3.72-5.85,8.5-5.85,24.45v82.94c0,15.95,1.6,20.73,5.85,24.45,4.25,4.25,10.63,5.32,29.24,5.32h130.25c18.07,0,24.98-1.07,29.24-5.32,4.25-3.72,5.84-8.5,5.84-24.45v-82.94c0-15.95-1.59-20.73-5.84-24.45ZM827.96,474.08c-4.26-4.25-10.64-5.32-29.24-5.32h-130.25c-18.08,0-24.99,1.07-29.24,5.32-4.25,3.72-5.85,8.5-5.85,24.45v82.94c0,15.95,1.6,20.73,5.85,24.45,4.25,4.25,10.63,5.32,29.24,5.32h130.25c18.07,0,24.98-1.07,29.24-5.32,4.25-3.72,5.84-8.5,5.84-24.45v-82.94c0-15.95-1.59-20.73-5.84-24.45Z"/>
  </g>
</svg>