<?xml version="1.0" encoding="utf-8"?>
<!-- Generator: Adobe Illustrator 28.4.1, SVG Export Plug-In . SVG Version: 6.00 Build 0)  -->
<svg version="1.1" id="Layer_1" xmlns="http://www.w3.org/2000/svg" xmlns:xlink="http://www.w3.org/1999/xlink" x="0px" y="0px"
	 viewBox="0 0 313 52.8" style="enable-background:new 0 0 313 52.8;" xml:space="preserve">
<path d="M15.1,52.1H0V0.9h26.1L56,39.1V0.9H71v51.3H45.5L15.1,13.2V52.1"/>
<path d="M143.1,36.3c0,7.1-1.3,9.6-3.3,11.9c-3.2,3.5-7.8,4.6-16.8,4.6H97.3c-9,0-13.6-1.1-16.8-4.6c-2.1-2.4-3.3-4.8-3.3-11.9V16.5
	c0-7.1,1.3-9.6,3.3-11.9C83.6,1.1,88.3,0,97.3,0H123c9,0,13.6,1.1,16.8,4.6c2.1,2.4,3.3,4.8,3.3,11.9V36.3 M122.4,39.8
	c3.4,0,4.7-0.2,5.5-1c0.8-0.7,1.1-1.6,1.1-4.6V18.6c0-3-0.3-3.9-1.1-4.6c-0.8-0.8-2-1-5.5-1H97.9c-3.4,0-4.7,0.2-5.5,1
	c-0.8,0.7-1.1,1.6-1.1,4.6v15.6c0,3,0.3,3.9,1.1,4.6c0.8,0.8,2,1,5.5,1H122.4L122.4,39.8"/>
<path d="M165,0.9v51.3h-15.7V0.9H165 M191.7,0.9h20.8l-28.1,24L216,52.1h-22.2L165,25.4L191.7,0.9"/>
<path d="M218.9,0.9h15.8v51.3h-15.8"/>
<path d="M294.7,52.1l-4.7-8.9h-30.5l-4.6,8.9h-17.4l27.9-51.2h19.6L313,52.1H294.7 M265.1,32.1h19.6l-9.8-18.6L265.1,32.1"/>
</svg>
